<svg version="1.1" viewBox="0 0 32 32" xmlns="http://www.w3.org/2000/svg">
 <path d="m16.002 9.7139h8.6338c0.64392 0 0.7896 0.14673 0.7896 0.79276 0 5.2147-0.01267 10.427 0.01052 15.641 0.0053 1.0999-0.75687 2.1313-1.8346 2.373a1.918 1.918 0 0 1-0.41591 0.04328c-4.7925 0.0022-9.586 0.0042-14.38 0-1.1781 0-2.2294-1.0503-2.2305-2.2273-0.00528-5.316-0.00316-10.632-0.00211-15.948 0-0.4898 0.1879-0.67348 0.68403-0.67348 2.9145-0.00214 5.8301 0 8.7447 0zm-5.4934 9.4276c0 1.746-1e-3 3.493 0.0011 5.239 0.0011 0.6492 0.27129 0.99861 0.76637 1.0092 0.50458 0.01161 0.79065-0.34835 0.79171-1.0134 0.0011-3.492 0.0011-6.9839-0.0042-10.476a1.8156 1.8156 0 0 0-0.09078-0.5468c-0.09078-0.27763-0.37263-0.45602-0.67242-0.46341-0.3019-0.0064-0.60803 0.17945-0.6967 0.46552a2.1292 2.1292 0 0 0-0.09078 0.60381c-0.0074 1.728-0.0042 3.455-0.0042 5.183zm4.7112 0.0064c0 1.7175-0.0033 3.436 0.0033 5.1535 0 0.19318 0.02111 0.39374 0.07495 0.57847 0.11295 0.38319 0.50141 0.58059 0.88671 0.47925 0.39796-0.10451 0.59114-0.3948 0.59114-0.9321 0.0033-3.5194 0.0033-7.0399 0-10.559 0-0.13829-0.02218-0.28079-0.05806-0.4138a0.72309 0.72309 0 0 0-0.71148-0.56369 0.71992 0.71992 0 0 0-0.72098 0.54997 2.0901 2.0901 0 0 0-0.06333 0.52569c-0.0042 1.727-0.0022 3.454-0.0022 5.182zm6.2693 0.02217c0-1.7555 0.0011-3.5099-0.0011-5.2654-0.0011-0.66609-0.28501-1.0239-0.79171-1.0134-0.49508 0.01052-0.76532 0.35891-0.76532 1.0092a4950.6 4950.6 0 0 0 0.0033 10.476c0 0.19212 0.03906 0.39163 0.10133 0.57319a0.68931 0.68931 0 0 0 0.68615 0.43702c0.29346-0.02111 0.56053-0.12667 0.65976-0.4328a2.1218 2.1218 0 0 0 0.10344-0.62914c0.0074-1.7185 0.0042-3.436 0.0042-5.1545zm-5.486-11.015h-10.204c-0.65026 0-0.79698-0.14462-0.79698-0.78537 0-0.38319 0.028502-0.76954-0.00634-1.1485-0.058058-0.62598 0.59959-1.2393 1.2171-1.2277 1.6911 0.031667 3.3822 0.00422 5.0733 0.015834 0.27235 0.00211 0.4328-0.079171 0.53731-0.33252 0.10344-0.24912 0.23434-0.4898 0.37474-0.71993a1.0239 1.0239 0 0 1 0.90783-0.51936c1.9244-0.00528 3.8498-0.00423 5.7742-0.00106 0.48347 0 0.79698 0.27763 1.0166 0.67981 0.10662 0.19634 0.2164 0.3948 0.29874 0.6017 0.09184 0.22696 0.24279 0.29135 0.47819 0.29029 1.6816-0.00844 3.3642 0.023223 5.0458-0.017944 0.69248-0.016888 1.3512 0.6017 1.2826 1.2773-0.03906 0.38952-0.0053 0.78537-0.0074 1.177-0.0022 0.53203-0.17629 0.70937-0.70409 0.71042h-10.287z" fill="#733737" stroke-width="1.0556"/>
</svg>
