<svg width="2048px" height="2048px" clip-rule="evenodd" fill-rule="evenodd" image-rendering="optimizeQuality" shape-rendering="geometricPrecision" text-rendering="geometricPrecision" version="1.1" viewBox="0 0 2048 2048" xml:space="preserve" xmlns="http://www.w3.org/2000/svg"><defs><style type="text/css">
   <![CDATA[
    .fil3 {fill:none}
    .fil1 {fill:#E76261}
    .fil2 {fill:#FFFFFE}
    .fil0 {fill:#333333;fill-rule:nonzero}
   ]]>
  </style></defs><g transform="matrix(1.3575 0 0 1.3575 -366.13 -366.13)"><path class="fil0" d="m850.12 1226.2c70.371-36.456 140.5-72.803 210.62-109.16 68.822-35.68 137.65-71.374 206.7-107.19-76.518-39.954-152.62-79.663-228.63-119.33-62.884-32.813-125.72-65.603-188.69-98.477v434.16zm225.25-80.784c-77.865 40.369-155.73 80.727-233.94 121.24l-23.313 12.076v-539.34l23.375 12.204c70.804 36.967 141.4 73.807 212.07 110.68 85.009 44.358 170.12 88.769 255.8 133.52l27.168 14.189-27.23 14.124c-78.202 40.561-156.07 80.946-233.93 121.31z"/><path class="fil0" d="m1749.8 1375.5c-9.8138 42.345-32.01 79.169-62.178 106.57-30.342 27.562-68.75 45.638-110.76 50.289-91.5 10.234-183.78 15.386-276.36 17.968-91.986 2.5654-184.36 2.5654-276.58 2.5122-92.177 0.053-184.55 0.053-276.55-2.5122-92.593-2.5819-184.9-7.7339-276.41-17.968-42.021-4.6512-80.437-22.733-110.77-50.303-30.152-27.408-52.318-64.228-62.068-106.56-13.091-56.73-19.63-115.91-22.892-175.43-3.2776-59.834-3.2787-118.8-3.2787-176.04 0-57.317 0.0839-116.36 3.4406-176.16 3.3437-59.545 9.9626-118.72 23.047-175.44 9.6921-42.314 31.847-79.124 62.002-106.53 30.347-27.586 68.8-45.678 110.83-50.329 91.499-10.235 183.8-15.387 276.4-17.97 92-2.5654 184.38-2.5654 276.54-2.5122 92.177-0.0532 184.56-0.0532 276.55 2.5122 92.582 2.5831 184.86 7.735 276.3 17.97 42.073 4.6488 80.543 22.733 110.92 50.307 30.188 27.405 52.378 64.222 62.128 106.56 25.785 112.21 25.785 233.85 25.782 348.7h0.063v2.902h-0.063c0 57.804-0.022 117.35-3.2527 176.04-3.2741 59.517-9.8138 118.69-22.847 175.43zm-83.679 82.95c25.499-23.164 44.261-54.288 52.554-90.074 12.584-54.774 18.913-112.18 22.096-170.05 3.2291-58.689 3.2563-117.35 3.2528-174.29h-0.063v-2.902h0.063c0-112.98 0-232.64-25.031-341.57-8.2406-35.779-26.994-66.898-52.505-90.056-25.476-23.126-57.705-38.289-92.919-42.181-90.984-10.185-182.3-15.296-273.68-17.845-91.97-2.5642-183.93-2.5642-275.67-2.5122-91.732-0.052-183.68-0.052-275.67 2.5122-91.386 2.5488-182.73 7.6618-273.77 17.845-35.167 3.8917-67.376 19.063-92.834 42.203-25.467 23.148-44.184 54.258-52.378 90.033-12.639 54.788-19.045 112.2-22.296 170.07-3.235 57.622-3.3154 116.85-3.3154 174.4 0 57.503 0 116.74 3.1536 174.29 3.1713 57.865 9.4996 115.27 22.141 170.05 8.2417 35.787 26.972 66.906 52.444 90.06 25.44 23.126 57.613 38.286 92.766 42.177 91.048 10.184 182.39 15.295 273.78 17.843 91.981 2.5642 183.93 2.5642 275.68 2.5122 91.786 0.052 183.74 0.052 275.7-2.5122 91.374-2.5476 182.69-7.6606 273.73-17.843 35.147-3.8917 67.315-19.046 92.763-42.163z"/><path class="fil1" d="m1666.2 1458.5c25.499-23.164 44.261-54.288 52.554-90.074 12.584-54.774 18.913-112.18 22.096-170.05 3.2291-58.689 3.2563-117.35 3.2528-174.29h-0.063v-2.902h0.063c0-112.98 0-232.64-25.031-341.57-8.2406-35.779-26.994-66.898-52.505-90.056-25.476-23.126-57.705-38.289-92.919-42.181-90.984-10.185-182.3-15.296-273.68-17.845-91.97-2.5642-183.93-2.5642-275.67-2.5122-91.732-0.052-183.68-0.052-275.67 2.5122-91.386 2.5488-182.73 7.6618-273.77 17.845-35.167 3.8917-67.376 19.063-92.834 42.203-25.467 23.148-44.184 54.258-52.378 90.033-12.639 54.788-19.045 112.2-22.296 170.07-3.235 57.622-3.3154 116.85-3.3154 174.4 0 57.503 0 116.74 3.1536 174.29 3.1713 57.865 9.4996 115.27 22.141 170.05 8.2417 35.787 26.972 66.906 52.444 90.06 25.44 23.126 57.613 38.286 92.766 42.177 91.048 10.184 182.39 15.295 273.78 17.843 91.981 2.5642 183.93 2.5642 275.68 2.5122 91.786 0.052 183.74 0.052 275.7-2.5122 91.374-2.5476 182.69-7.6606 273.73-17.843 35.147-3.8917 67.315-19.046 92.763-42.163zm-612.6-596.24c85.009 44.358 170.12 88.769 255.8 133.52l27.168 14.189-27.23 14.124-233.93 121.31c-77.865 40.369-155.73 80.727-233.94 121.24l-23.313 12.076v-539.34l23.375 12.204c70.804 36.967 141.4 73.807 212.07 110.68z"/><path class="fil2" d="m1060.7 1117 206.7-107.19c-76.518-39.954-152.62-79.663-228.63-119.33l-188.69-98.477v434.16c70.371-36.456 140.5-72.803 210.62-109.16z"/></g><rect class="fil3" width="2048" height="2048"/></svg>
